dummy_motion.mot										
nRows=67										
nColumns=11										
name dummy_motion.mot										
datacolumns 11										
datarows 67										
range 25.01 25.67										
endheader										
time	pelvis_tilt	pelvis_tx	pelvis_ty	hip_flexion_r	knee_angle_r	ankle_angle_r	hip_flexion_l	knee_angle_l	ankle_angle_l	lumbar_extension
25.01	0	0	0	79.98464701	-25.00160808	-35.16693953	79.98464701	-25.00160808	-35.16693953	0
25.02	0	0	0	44.39304725	-73.53120026	26.57659588	44.39304725	-73.53120026	26.57659588	0
25.03	0	0	0	-22.44362776	-95.42045464	5.826323766	-22.44362776	-95.42045464	5.826323766	0
25.04	0	0	0	53.00796253	-115.1853973	21.97150897	53.00796253	-115.1853973	21.97150897	0
25.05	0	0	0	-63.02750389	1.84141895	-10.89913778	-63.02750389	1.84141895	-10.89913778	0
25.06	0	0	0	-15.80987605	2.948686693	-3.784286041	-15.80987605	2.948686693	-3.784286041	0
25.07	0	0	0	18.70281993	1.453536576	-13.57474451	18.70281993	1.453536576	-13.57474451	0
25.08	0	0	0	26.60887418	-93.57156342	15.94648211	26.60887418	-93.57156342	15.94648211	0
25.09	0	0	0	-15.0202638	-71.39895525	-37.33190964	-15.0202638	-71.39895525	-37.33190964	0
25.1	0	0	0	28.32965543	-3.572926693	-5.846656862	28.32965543	-3.572926693	-5.846656862	0
25.11	0	0	0	21.63358244	-40.88073988	2.619825221	21.63358244	-40.88073988	2.619825221	0
25.12	0	0	0	-56.74087201	-4.666170835	-9.684864514	-56.74087201	-4.666170835	-9.684864514	0
25.13	0	0	0	54.23324489	-61.91796714	21.13546867	54.23324489	-61.91796714	21.13546867	0
25.14	0	0	0	79.87171665	-60.1221625	-26.58113869	79.87171665	-60.1221625	-26.58113869	0
25.15	0	0	0	67.50352302	-20.04469641	-10.58608638	67.50352302	-20.04469641	-10.58608638	0
25.16	0	0	0	23.69145013	-23.80364192	32.65738298	23.69145013	-23.80364192	32.65738298	0
25.17	0	0	0	62.76388307	-60.22331755	12.24546439	62.76388307	-60.22331755	12.24546439	0
25.18	0	0	0	-66.79028761	-26.87612418	-14.47773647	-66.79028761	-26.87612418	-14.47773647	0
25.19	0	0	0	4.084266837	-109.4297598	28.94851697	4.084266837	-109.4297598	28.94851697	0
25.2	0	0	0	74.639816	-54.68562746	-28.26319531	74.639816	-54.68562746	-28.26319531	0
25.21	0	0	0	70.69200917	-27.68337095	22.71506127	70.69200917	-27.68337095	22.71506127	0
25.22	0	0	0	11.99376012	-3.239493859	-19.19554235	11.99376012	-3.239493859	-19.19554235	0
25.23	0	0	0	39.03829185	-4.2650429	10.21889538	39.03829185	-4.2650429	10.21889538	0
25.24	0	0	0	-2.587444693	-13.83773002	-27.82016532	-2.587444693	-13.83773002	-27.82016532	0
25.25	0	0	0	-15.15117506	-25.55747805	-4.320546081	-15.15117506	-25.55747805	-4.320546081	0
25.26	0	0	0	24.61275883	2.394629693	16.27563516	24.61275883	2.394629693	16.27563516	0
25.27	0	0	0	78.56238734	-84.21704366	-45.90919873	78.56238734	-84.21704366	-45.90919873	0
25.28	0	0	0	75.02856079	-37.19980576	25.02227479	75.02856079	-37.19980576	25.02227479	0
25.29	0	0	0	22.94845455	6.292467945	-10.04705775	22.94845455	6.292467945	-10.04705775	0
25.3	0	0	0	-31.18016924	-47.25474498	-13.14649349	-31.18016924	-47.25474498	-13.14649349	0
25.31	0	0	0	71.63933412	-60.23988193	-34.06766755	71.63933412	-60.23988193	-34.06766755	0
25.32	0	0	0	75.51641661	-104.3368363	-21.62131149	75.51641661	-104.3368363	-21.62131149	0
25.33	0	0	0	-29.04991308	-58.34930147	-30.51916024	-29.04991308	-58.34930147	-30.51916024	0
25.34	0	0	0	75.47754504	-17.9054244	-23.52101851	75.47754504	-17.9054244	-23.52101851	0
25.35	0	0	0	85.44622323	-95.98738662	15.12480982	85.44622323	-95.98738662	15.12480982	0
25.36	0	0	0	-3.935516116	2.740961824	7.022173414	-3.935516116	2.740961824	7.022173414	0
25.37	0	0	0	47.67901019	-0.827400755	12.76236264	47.67901019	-0.827400755	12.76236264	0
25.38	0	0	0	-23.06065706	-55.45881716	24.86838272	-23.06065706	-55.45881716	24.86838272	0
25.39	0	0	0	28.27031923	-17.67142982	39.39398782	28.27031923	-17.67142982	39.39398782	0
25.4	0	0	0	1.872309653	-3.444875688	11.17288123	1.872309653	-3.444875688	11.17288123	0
25.41	0	0	0	46.21514439	-86.62673078	-15.89773394	46.21514439	-86.62673078	-15.89773394	0
25.42	0	0	0	60.97054455	-109.946122	-39.3617524	60.97054455	-109.946122	-39.3617524	0
25.43	0	0	0	7.663630532	-116.3699526	33.42987915	7.663630532	-116.3699526	33.42987915	0
25.44	0	0	0	-56.50076397	-89.07099165	31.36688381	-56.50076397	-89.07099165	31.36688381	0
25.45	0	0	0	67.32114403	-81.13255318	21.65269212	67.32114403	-81.13255318	21.65269212	0
25.46	0	0	0	-9.295508316	-101.6686368	21.88303027	-9.295508316	-101.6686368	21.88303027	0
25.47	0	0	0	-55.51301882	-111.4419463	19.23594293	-55.51301882	-111.4419463	19.23594293	0
25.48	0	0	0	9.342218721	-84.4387209	36.99844379	9.342218721	-84.4387209	36.99844379	0
25.49	0	0	0	-47.66853566	-39.29592131	-32.67849737	-47.66853566	-39.29592131	-32.67849737	0
25.5	0	0	0	64.85628161	-20.636543	35.44624757	64.85628161	-20.636543	35.44624757	0
25.51	0	0	0	6.114829499	-91.21428109	27.51317559	6.114829499	-91.21428109	27.51317559	0
25.52	0	0	0	77.96541409	-56.40750562	-41.60312885	77.96541409	-56.40750562	-41.60312885	0
25.53	0	0	0	65.69657687	-119.3736168	-1.092254556	65.69657687	-119.3736168	-1.092254556	0
25.54	0	0	0	66.89048199	-102.0102691	15.86948886	66.89048199	-102.0102691	15.86948886	0
25.55	0	0	0	3.435040089	-90.02915151	3.119083401	3.435040089	-90.02915151	3.119083401	0
25.56	0	0	0	27.85439785	-25.04352331	17.35712738	27.85439785	-25.04352331	17.35712738	0
25.57	0	0	0	-28.87251462	-76.73523284	37.56279109	-28.87251462	-76.73523284	37.56279109	0
25.58	0	0	0	33.91143784	-73.85261862	30.40941523	33.91143784	-73.85261862	30.40941523	0
25.59	0	0	0	63.80511413	8.523112473	22.87398654	63.80511413	8.523112473	22.87398654	0
25.6	0	0	0	-67.19877278	-30.00073212	12.8136355	-67.19877278	-30.00073212	12.8136355	0
25.61	0	0	0	35.07613067	0.050573413	0.239177506	35.07613067	0.050573413	0.239177506	0
25.62	0	0	0	-0.178621057	-81.64067877	21.11334321	-0.178621057	-81.64067877	21.11334321	0
25.63	0	0	0	81.81102766	-57.42813145	-0.087643155	81.81102766	-57.42813145	-0.087643155	0
25.64	0	0	0	-38.72922659	-63.9294051	-45.4737749	-38.72922659	-63.9294051	-45.4737749	0
25.65	0	0	0	34.92039203	-31.31178066	-15.65416137	34.92039203	-31.31178066	-15.65416137	0
25.66	0	0	0	62.17520154	-84.00823121	-18.70627417	62.17520154	-84.00823121	-18.70627417	0
25.67	0	0	0	68.68336996	-33.03982842	-41.50821061	68.68336996	-33.03982842	-41.50821061	0
